<svg xmlns="http://www.w3.org/2000/svg" width="720" height="480" viewBox="0 0 720 480">
  <rect width="720" height="480" fill="#f4f7f8"/>
  <g stroke="#c9d2d7" stroke-width="1"><path d="M80 380H650"/><path d="M80 80V380"/></g>
  <polyline points="90,350 180,320 270,285 360,250 450,220 560,195 640,180" fill="none" stroke="#3b6f47" stroke-width="5"/>
  <polyline points="90,340 180,285 270,230 360,185 450,145 560,115 640,95" fill="none" stroke="#c24835" stroke-width="5"/>
  <polyline points="90,355 180,330 270,315 360,285 450,270 560,255 640,245" fill="none" stroke="#2f5f98" stroke-width="5"/>
  <g font-family="Arial" font-size="18" fill="#1f2933">
    <text x="98" y="58">Synthetic performance curve</text>
    <text x="540" y="100" fill="#c24835">Sample B</text><text x="540" y="182" fill="#3b6f47">Sample A</text><text x="540" y="246" fill="#2f5f98">Sample C</text>
  </g>
</svg>
