<svg xmlns="http://www.w3.org/2000/svg" width="720" height="480" viewBox="0 0 720 480">
  <rect width="720" height="480" fill="#111"/>
  <filter id="grain"><feTurbulence type="fractalNoise" baseFrequency="0.035" numOctaves="4"/><feColorMatrix type="saturate" values="0"/></filter>
  <rect x="20" y="20" width="680" height="410" filter="url(#grain)" opacity="0.75"/>
  <g fill="none" stroke="#d8d8d8" stroke-width="8" opacity="0.72">
    <path d="M110 310 C170 180 260 150 310 250 S450 330 520 170"/>
    <path d="M140 250 C230 220 260 120 370 185 S520 270 590 210"/>
    <path d="M180 350 C260 300 340 310 430 360 S560 335 620 300"/>
  </g>
  <g fill="#efefef" opacity="0.75">
    <circle cx="205" cy="210" r="16"/><circle cx="318" cy="258" r="20"/><circle cx="462" cy="218" r="18"/><circle cx="555" cy="304" r="15"/>
  </g>
  <rect x="48" y="428" width="150" height="10" fill="#f8f8f8"/>
  <text x="48" y="456" fill="#f8f8f8" font-family="Arial" font-size="18">SEM-like texture</text>
</svg>
