<svg xmlns="http://www.w3.org/2000/svg" width="1200" height="300" viewBox="0 0 1200 300"><rect width="1200" height="300" rx="24" fill="#f5f3ff"/><text x="60" y="60" font-family="Arial" font-size="28" font-weight="700" fill="#4c1d95">Materials VLM Post-Training · Demo Flow</text><g font-family="Arial" text-anchor="middle"><g fill="#fff" stroke="#ddd6fe" stroke-width="2"><rect x="60" y="105" width="190" height="110" rx="16"/><rect x="310" y="105" width="190" height="110" rx="16"/><rect x="560" y="105" width="190" height="110" rx="16"/><rect x="810" y="105" width="190" height="110" rx="16"/></g><g fill="#4c1d95" font-size="18" font-weight="700"><text x="155" y="145">1. Inspect Data</text><text x="405" y="145">2. Validate Schema</text><text x="655" y="145">3. Train / Tune</text><text x="905" y="145">4. Evaluate</text></g><g fill="#4b5563" font-size="14"><text x="155" y="175">SEM · XRD · Raman</text><text x="405" y="175">SFT &amp; DPO JSONL</text><text x="655" y="175">mock / LoRA interface</text><text x="905" y="175">before vs. after</text></g></g><g stroke="#8b5cf6" stroke-width="5"><path d="M250 160h52"/><path d="M500 160h52"/><path d="M750 160h52"/></g><g fill="#8b5cf6"><path d="M302 153l14 7-14 7z"/><path d="M552 153l14 7-14 7z"/><path d="M802 153l14 7-14 7z"/></g></svg>
